<?xml version="1.0" encoding="UTF-8"?>
<svg id="Layer_2" data-name="Layer 2" xmlns="http://www.w3.org/2000/svg" viewBox="0 0 26.68 31.44">
  <defs>
    <style>
      .cls-1 {
        fill: #f9f9f9;
      }

      .cls-2 {
        fill: #ffb32c;
      }
    </style>
  </defs>
  <g id="Layer_1-2" data-name="Layer 1">
    <path class="cls-2" d="M2.19.02l22.08-.02c1.13.1,2.03.97,2.29,2.05.14,9.11.17,18.28-.01,27.38-.43,1.63-2.27,2.49-3.79,1.72-2.95-1.7-5.77-3.78-8.72-5.46-.32-.18-.63-.49-1.02-.24-2.92,1.69-5.74,3.8-8.68,5.43C2.22,32.07.29,31.17,0,28.76V2.67C.1,1.34.86.3,2.19.02ZM13.09,5.72c-.14.03-.29.15-.37.28-.5,1.06-.88,2.19-1.38,3.25-.25.53-.3.87-.97.95-1,.11-2.19-.09-3.21,0-.49.23-.63.69-.29,1.14.49.64,1.94,1.47,2.6,2.1.29.27.47.4.41.84-.18,1.26-1.04,2.84-1.23,4.11-.1.66.3,1.17.97.89.89-.37,2.23-1.77,3.16-2.33.47-.29.57-.33,1.07-.04,1.01.58,2.03,1.75,3.05,2.3.65.35,1.15.03,1.13-.7-.31-1.3-.87-2.6-1.17-3.89-.14-.59-.21-.66.25-1.1.48-.47,2.73-1.98,2.84-2.44.09-.39-.09-.73-.45-.87-1.02-.09-2.21.11-3.21,0-.33-.04-.59-.16-.76-.45-.63-1.05-.98-2.64-1.6-3.75-.19-.29-.51-.35-.83-.28Z"/>
    <path class="cls-1" d="M14.05,4.63l1.69,5.17h5.53c.71,0,1,.91.43,1.32l-4.47,3.23,1.7,5.2c.22.68-.56,1.25-1.14.83l-4.45-3.22-4.45,3.22c-.58.42-1.36-.15-1.14-.83l1.7-5.2-4.47-3.23c-.57-.42-.28-1.32.43-1.32h5.53s1.69-5.17,1.69-5.17c.23-.69,1.21-.69,1.44,0Z"/>
  </g>
</svg>