<?xml version="1.0" encoding="UTF-8"?>
<svg id="Layer_2" data-name="Layer 2" xmlns="http://www.w3.org/2000/svg" viewBox="0 0 67.69 87.86">
  <defs>
    <style>
      .cls-1 {
        fill: none;
        stroke: #fff;
        stroke-miterlimit: 10;
        stroke-width: 3px;
      }
    </style>
  </defs>
  <g id="Layer_1-2" data-name="Layer 1">
    <path class="cls-1" d="M66,49.06c.12-2.77-2.27-6.01-5.01-7.03.14-13.54.95-21.05-6.24-30.49C41.71-5.58,14.2.31,7.74,20.75c-2.15,6.81-.98,14.29-1.27,21.35-2.66,1.14-4.39,3.21-4.97,6.06v31.58c.6,3.54,3.07,6.01,6.61,6.61h51.26c3.8-.43,6.38-3.66,6.62-7.35.63-9.73-.5-20.14,0-29.94ZM21.34,27.74c0-1.99,1.68-5.27,2.97-6.78,7.31-8.52,21.9-3.83,21.84,7.27,0,1.55-.1,9.66.02,13.48h-24.83v-13.97ZM36.25,66.05c-.25.4.13,6.94-.02,8.16-.33,2.67-4.09,3.05-4.89.41l-.07-8.49c-6.37-2.33-6.66-11.59-.21-13.96,9.35-3.44,14.44,10.32,5.2,13.88Z"/>
  </g>
</svg>