<?xml version="1.0" encoding="UTF-8"?>
<svg id="Layer_2" data-name="Layer 2" xmlns="http://www.w3.org/2000/svg" viewBox="0 0 54.34 54.34">
  <defs>
    <style>
      .cls-1 {
        fill: #ec008c;
        stroke: #000;
        stroke-miterlimit: 10;
        stroke-width: 1.5px;
      }

      .cls-2 {
        fill: #f9f9f9;
      }
    </style>
  </defs>
  <g id="Layer_1-2" data-name="Layer 1">
    <path class="cls-1" d="M44.73.75c4.62.16,8.73,4.24,8.86,8.86v40.39c-.13,3.49-4.57,4.55-7.02,2.66L2.08,8.21C-.34,5.92.62.9,4.34.75h40.39Z"/>
    <g>
      <path class="cls-2" d="M36.76,25.4c.17.13,3.52-1.22,4.09-1.31,2.9-.46.15,4.22.03,5.44l6.67-3.27c1-.18,1.7,1.06.99,1.82-.15.16-.37.26-.55.37-2.01,1.24-6.11,3.28-8.31,4.16-1.03.41-1.78.12-1.79-1.07l1.44-4.59-4.49,1.43c-.97.18-1.69-.76-1.22-1.64,1.53-2.65,2.64-5.86,4.22-8.45.12-.2.24-.46.43-.6.84-.63,2.01.12,1.74,1.12l-3.25,6.59Z"/>
      <path class="cls-2" d="M25.43,12.83l4.23-4.06c1.46-.39,2.09.77,1.13,1.95-1.76,2.17-4.44,4.12-6.29,6.28-.78.78-1.95.41-2.02-.7l1.51-7.59-4.32,4.18c-1.08.53-2.06-.68-1.19-1.81,1.69-2.2,4.63-4.24,6.44-6.44.77-.72,1.89-.31,1.97.72l-1.45,7.47Z"/>
      <path class="cls-2" d="M37.55,17.12c-1.25,1.25-3.07-1.75-3.98-2.39-.12-.1-.17-.01-.26.05-.15.1-1.47,1.41-1.48,1.51.51.84,2.38,1.86,1.33,2.98s-2.2-.76-3.03-1.28l-1.6,1.6c-.04.2,2.02,2.03,2.31,2.41,1.07,1.36-.24,2.67-1.6,1.6-.69-.55-2.49-2.35-3.04-3.04-.6-.77-.54-1.18.05-1.91,1.75-2.15,4.41-4.09,6.23-6.23.64-.6,1.16-.61,1.85-.1.45.33,3.22,3.13,3.39,3.51.2.44.18.93-.18,1.29Z"/>
    </g>
  </g>
</svg>