<?xml version="1.0" encoding="UTF-8"?>
<svg id="Layer_2" data-name="Layer 2" xmlns="http://www.w3.org/2000/svg" viewBox="0 0 18 18">
  <defs>
    <style>
      .cls-1 {
        fill: #fff;
      }
    </style>
  </defs>
  <g id="Layer_1-2" data-name="Layer 1">
    <g>
      <path class="cls-1" d="M18,3.64c-.17-1.89-1.67-3.43-3.56-3.64H3.49C1.67.23.21,1.7,0,3.52v10.92c.19,1.88,1.71,3.37,3.59,3.56h10.85c1.91-.22,3.41-1.76,3.56-3.67V3.64ZM16.74,12.3c-.08-.05-.15-.13-.22-.2-1.05-1.15-2.03-2.45-3.1-3.58-.98-1.03-2.16-1.28-3.38-.43l-2.67,2.99c-.56-.63-.98-1.39-1.84-1.66-.84-.26-1.68-.06-2.33.52l-1.94,2.32V3.56c0-.98,1.35-2.26,2.34-2.29h10.69c1.06-.02,2.45,1.28,2.45,2.33v8.7Z"/>
      <path class="cls-1" d="M4.51,3.15c-2.01.27-1.73,3.57.5,3.33,2.13-.23,1.89-3.65-.5-3.33Z"/>
    </g>
  </g>
</svg>