<?xml version="1.0" encoding="UTF-8"?>
<svg id="Layer_2" data-name="Layer 2" xmlns="http://www.w3.org/2000/svg" viewBox="0 0 21.6 21.6">
  <defs>
    <style>
      .cls-1 {
        fill: #fff;
      }
    </style>
  </defs>
  <g id="Layer_1-2" data-name="Layer 1">
    <g>
      <path class="cls-1" d="M5.24,4.35c1.11.07,2.43-.14,3.52-.01.59.07.93.52.98,1.09.08.8.07,2.38,0,3.18-.06.64-.44,1.07-1.09,1.13-.8.08-2.37.07-3.18,0-.62-.05-1.02-.36-1.13-.99.09-1.1-.12-2.4,0-3.48.06-.46.43-.86.89-.93Z"/>
      <path class="cls-1" d="M5.34,11.87c.75-.09,2.55-.09,3.32-.01.62.06,1.02.47,1.09,1.09.08.8.07,2.37,0,3.18-.05.58-.37,1.06-.99,1.13-.78.09-2.59.07-3.38,0-.56-.05-.98-.43-1.03-.99-.11-1.09.08-2.37,0-3.48.12-.53.45-.86.99-.92Z"/>
      <path class="cls-1" d="M12.76,4.35c1.12.06,2.42-.12,3.52-.01.53.05.93.45.99.98.09.8.07,2.58,0,3.38-.05.62-.49.98-1.09,1.03-.8.08-2.38.07-3.18,0-.64-.05-1.07-.44-1.13-1.09-.08-.77-.08-2.5,0-3.27.06-.54.36-.89.89-1.03Z"/>
      <path class="cls-1" d="M12.86,11.87c.72-.1,2.57-.08,3.32-.01.56.05,1.02.4,1.09.98.09.78.07,2.59,0,3.38-.05.55-.43.97-.99,1.03-.8.09-2.58.07-3.38,0-.62-.06-.98-.49-1.03-1.09-.07-.77-.08-2.52,0-3.28.06-.55.44-.95.99-1.03Z"/>
      <path class="cls-1" d="M20.38,15.1c.53-.06,1.1.35,1.17.88.08.59.06,2.2,0,2.82-.11,1.08-1.01,2.15-2,2.54-.71.28-2.73.3-3.52.21-1.21-.14-1.21-1.98,0-2.12.75-.08,2.18.17,2.8-.13,1.46-.71-.37-3.99,1.56-4.2Z"/>
      <path class="cls-1" d="M2.76.06C3.26,0,5.36-.02,5.78.1c.98.28.92,1.84-.08,2.05s-2.89-.41-3.41.63c-.29.6-.06,2.02-.13,2.75-.11,1.27-1.96,1.25-2.12.09-.08-.61-.06-2.62.08-3.19C.42,1.27,1.56.21,2.76.06Z"/>
      <path class="cls-1" d="M15.94.06c.54-.09,2.33-.07,2.9,0,1.21.15,2.36,1.23,2.64,2.41.13.56.15,2.56.07,3.15-.16,1.15-1.98,1.16-2.12-.05-.08-.75.17-2.18-.13-2.8-.64-1.3-3.21-.02-3.96-.99-.47-.61-.19-1.6.59-1.73Z"/>
      <path class="cls-1" d="M1,15.1c.46-.05,1,.27,1.12.72.27.96-.42,2.95.66,3.48.62.3,2.05.05,2.8.13,1.22.14,1.2,1.99,0,2.12-.8.09-2.8.07-3.52-.21-.76-.3-1.47-.99-1.78-1.76s-.32-2.75-.23-3.56c.05-.48.47-.87.95-.92Z"/>
    </g>
  </g>
</svg>